<svg width="593" height="102" viewBox="0 0 593 102" fill="none" xmlns="http://www.w3.org/2000/svg">
<path d="M0.220001 101V9.99999H42.86C53.78 9.99999 62.1 12.1667 67.82 16.5C73.54 20.7467 76.4 26.4667 76.4 33.66C76.4 38.5133 75.2733 42.6733 73.02 46.14C70.7667 49.52 67.7333 52.1633 63.92 54.07C60.1933 55.89 56.12 56.8 51.7 56.8L54.04 52.12C59.1533 52.12 63.7467 53.0733 67.82 54.98C71.8933 56.8 75.1 59.4867 77.44 63.04C79.8667 66.5933 81.08 71.0133 81.08 76.3C81.08 84.1 78.09 90.1667 72.11 94.5C66.13 98.8333 57.2467 101 45.46 101H0.220001ZM17.12 87.74H44.42C50.7467 87.74 55.6 86.7 58.98 84.62C62.36 82.54 64.05 79.2033 64.05 74.61C64.05 70.1033 62.36 66.81 58.98 64.73C55.6 62.5633 50.7467 61.48 44.42 61.48H15.82V48.35H41.04C46.9333 48.35 51.44 47.31 54.56 45.23C57.7667 43.15 59.37 40.03 59.37 35.87C59.37 31.6233 57.7667 28.46 54.56 26.38C51.44 24.3 46.9333 23.26 41.04 23.26H17.12V87.74ZM120.956 101.91C113.85 101.91 107.523 100.393 101.976 97.36C96.4298 94.24 92.0531 89.9933 88.8465 84.62C85.6398 79.2467 84.0365 73.1367 84.0365 66.29C84.0365 59.3567 85.6398 53.2467 88.8465 47.96C92.0531 42.5867 96.4298 38.3833 101.976 35.35C107.523 32.3167 113.85 30.8 120.956 30.8C128.15 30.8 134.52 32.3167 140.066 35.35C145.7 38.3833 150.076 42.5433 153.196 47.83C156.403 53.1167 158.006 59.27 158.006 66.29C158.006 73.1367 156.403 79.2467 153.196 84.62C150.076 89.9933 145.7 94.24 140.066 97.36C134.52 100.393 128.15 101.91 120.956 101.91ZM120.956 88C124.943 88 128.496 87.1333 131.616 85.4C134.736 83.6667 137.163 81.1533 138.896 77.86C140.716 74.5667 141.626 70.71 141.626 66.29C141.626 61.7833 140.716 57.9267 138.896 54.72C137.163 51.4267 134.736 48.9133 131.616 47.18C128.496 45.4467 124.986 44.58 121.086 44.58C117.1 44.58 113.546 45.4467 110.426 47.18C107.393 48.9133 104.966 51.4267 103.146 54.72C101.326 57.9267 100.416 61.7833 100.416 66.29C100.416 70.71 101.326 74.5667 103.146 77.86C104.966 81.1533 107.393 83.6667 110.426 85.4C113.546 87.1333 117.056 88 120.956 88ZM191.876 101.91C184.249 101.91 178.356 99.96 174.196 96.06C170.036 92.0733 167.956 86.2233 167.956 78.51V16.24H184.206V78.12C184.206 81.4133 185.029 83.97 186.676 85.79C188.409 87.61 190.792 88.52 193.826 88.52C197.466 88.52 200.499 87.5667 202.926 85.66L207.476 97.23C205.569 98.79 203.229 99.96 200.456 100.74C197.682 101.52 194.822 101.91 191.876 101.91ZM156.516 44.58V31.58H202.796V44.58H156.516ZM213.603 101V27.68C213.603 20.4 215.726 14.5933 219.973 10.26C224.306 5.84 230.459 3.63 238.433 3.63C241.293 3.63 243.979 3.93333 246.493 4.53999C249.093 5.14666 251.259 6.1 252.993 7.4L248.573 19.62C247.359 18.6667 245.973 17.9733 244.413 17.54C242.853 17.02 241.249 16.76 239.603 16.76C236.223 16.76 233.666 17.7133 231.933 19.62C230.199 21.44 229.333 24.2133 229.333 27.94V35.74L229.853 43.02V101H213.603ZM202.163 45.1V32.1H248.443V45.1H202.163ZM259.363 101V4.53999H275.613V101H259.363ZM320.486 101.91C313.379 101.91 307.053 100.393 301.506 97.36C295.959 94.24 291.583 89.9933 288.376 84.62C285.169 79.2467 283.566 73.1367 283.566 66.29C283.566 59.3567 285.169 53.2467 288.376 47.96C291.583 42.5867 295.959 38.3833 301.506 35.35C307.053 32.3167 313.379 30.8 320.486 30.8C327.679 30.8 334.049 32.3167 339.596 35.35C345.229 38.3833 349.606 42.5433 352.726 47.83C355.933 53.1167 357.536 59.27 357.536 66.29C357.536 73.1367 355.933 79.2467 352.726 84.62C349.606 89.9933 345.229 94.24 339.596 97.36C334.049 100.393 327.679 101.91 320.486 101.91ZM320.486 88C324.473 88 328.026 87.1333 331.146 85.4C334.266 83.6667 336.693 81.1533 338.426 77.86C340.246 74.5667 341.156 70.71 341.156 66.29C341.156 61.7833 340.246 57.9267 338.426 54.72C336.693 51.4267 334.266 48.9133 331.146 47.18C328.026 45.4467 324.516 44.58 320.616 44.58C316.629 44.58 313.076 45.4467 309.956 47.18C306.923 48.9133 304.496 51.4267 302.676 54.72C300.856 57.9267 299.946 61.7833 299.946 66.29C299.946 70.71 300.856 74.5667 302.676 77.86C304.496 81.1533 306.923 83.6667 309.956 85.4C313.076 87.1333 316.586 88 320.486 88ZM378.711 101L353.231 31.58H368.571L390.411 92.81H383.131L406.011 31.58H419.661L441.891 92.81H434.741L457.231 31.58H471.661L446.051 101H430.451L410.171 46.79H414.981L394.311 101H378.711ZM475.917 101.91C472.971 101.91 470.457 100.913 468.377 98.92C466.297 96.84 465.257 94.24 465.257 91.12C465.257 87.8267 466.297 85.2267 468.377 83.32C470.457 81.3267 472.971 80.33 475.917 80.33C478.864 80.33 481.377 81.3267 483.457 83.32C485.537 85.2267 486.577 87.8267 486.577 91.12C486.577 94.24 485.537 96.84 483.457 98.92C481.377 100.913 478.864 101.91 475.917 101.91ZM494.656 101V31.58H510.906V101H494.656ZM502.846 20.14C499.812 20.14 497.299 19.1867 495.306 17.28C493.399 15.3733 492.446 13.0767 492.446 10.39C492.446 7.61666 493.399 5.31999 495.306 3.49999C497.299 1.59333 499.812 0.639998 502.846 0.639998C505.879 0.639998 508.349 1.55 510.256 3.36999C512.249 5.10333 513.246 7.31333 513.246 9.99999C513.246 12.86 512.292 15.2867 510.386 17.28C508.479 19.1867 505.966 20.14 502.846 20.14ZM555.634 101.91C548.527 101.91 542.2 100.393 536.654 97.36C531.107 94.24 526.73 89.9933 523.524 84.62C520.317 79.2467 518.714 73.1367 518.714 66.29C518.714 59.3567 520.317 53.2467 523.524 47.96C526.73 42.5867 531.107 38.3833 536.654 35.35C542.2 32.3167 548.527 30.8 555.634 30.8C562.827 30.8 569.197 32.3167 574.744 35.35C580.377 38.3833 584.754 42.5433 587.874 47.83C591.08 53.1167 592.684 59.27 592.684 66.29C592.684 73.1367 591.08 79.2467 587.874 84.62C584.754 89.9933 580.377 94.24 574.744 97.36C569.197 100.393 562.827 101.91 555.634 101.91ZM555.634 88C559.62 88 563.174 87.1333 566.294 85.4C569.414 83.6667 571.84 81.1533 573.574 77.86C575.394 74.5667 576.304 70.71 576.304 66.29C576.304 61.7833 575.394 57.9267 573.574 54.72C571.84 51.4267 569.414 48.9133 566.294 47.18C563.174 45.4467 559.664 44.58 555.764 44.58C551.777 44.58 548.224 45.4467 545.104 47.18C542.07 48.9133 539.644 51.4267 537.824 54.72C536.004 57.9267 535.094 61.7833 535.094 66.29C535.094 70.71 536.004 74.5667 537.824 77.86C539.644 81.1533 542.07 83.6667 545.104 85.4C548.224 87.1333 551.734 88 555.634 88Z" fill="black"/>
</svg>
